PathFileType	3	(X/Y/Z)	C:\Users\koon_\Desktop\
DataRate	CameraRate	NumFrames	NumMarkers	Units	OrigDataRate	OrigDataStartFrame	OrigNumFrames
100.0	100.0	9	27	mm	100.0	2627	3002	
Frame#	Time	GM:LFHD			GM:RFHD			GM:LBHD			GM:RBHD			GM:C7			GM:T10			GM:CLAV			GM:STRN			GM:RBAK			GM:LSHO			GM:LUPA			GM:LELB			GM:LFRA			GM:LWRA			GM:LWRB			GM:LFIN			GM:RSHO			GM:RUPA			GM:RELB			GM:RFRA			GM:RWRA			GM:RWRB			GM:RFIN			GM:LASI			GM:RASI			GM:LPSI			GM:RPSI			
		X1	Y1	Z1	X2	Y2	Z2	X3	Y3	Z3	X4	Y4	Z4	X5	Y5	Z5	X6	Y6	Z6	X7	Y7	Z7	X8	Y8	Z8	X9	Y9	Z9	X10	Y10	Z10	X11	Y11	Z11	X12	Y12	Z12	X13	Y13	Z13	X14	Y14	Z14	X15	Y15	Z15	X16	Y16	Z16	X17	Y17	Z17	X18	Y18	Z18	X19	Y19	Z19	X20	Y20	Z20	X21	Y21	Z21	X22	Y22	Z22	X23	Y23	Z23	X24	Y24	Z24	X25	Y25	Z25	X26	Y26	Z26	X27	Y27	Z27	
2627	26.26	86.82235	1605.3048	-98.0494	-67.332001	1602.5815	-100.43523	89.439804	1583.1581	-229.49854	-73.926628	1583.7229	-214.77246	4.0120397	1415.7015	-266.54694	6.6657419	1218.6908	-304.21259	15.608407	1359.2642	-107.90705	15.833579	1215.0607	-54.689453	-84.604958	1301.5144	-309.08673	180.9303	1390.1096	-203.24106	245.43596	1282.6426	-201.83305	265.78461	1078.1013	-254.49181	247.64799	959.1391	-166.34271	251.10664	889.59143	-143.55803	278.6911	866.55396	-200.35966	268.29745	802.36554	-126.23516	-176.38226	1390.2448	-173.26685	-231.81464	1154.2883	-174.25835	-257.10147	1074.3813	-225.96809	-238.66464	1014.6004	-155.80899	-235.58304	884.06897	-130.90157	-257.67596	865.21796	-185.93108	-259.34079	799.33221	-119.00966	148.59326	901.7074	-80.79068	-144.9243	906.69897	-78.82563	71.534973	947.49786	-290.23807	-66.385918	938.31238	-291.21768
2628	26.27	87.017654	1605.3529	-98.478355	-67.159554	1602.8208	-100.73076	89.473778	1582.9595	-229.83362	-74.186241	1583.6279	-214.96844	3.8730633	1415.653	-266.58154	6.5031099	1218.6833	-304.15262	15.620378	1359.2046	-107.90659	15.936941	1215.0149	-54.646545	-84.830971	1301.4738	-308.95428	180.8045	1390.1234	-203.37042	245.31131	1282.6915	-201.86217	265.61758	1078.036	-254.40704	247.44653	959.24725	-166.00899	250.45798	889.32654	-143.41127	278.32715	866.56482	-199.89244	268.03506	802.53516	-125.67683	-176.4337	1390.1869	-173.04108	-231.77351	1154.093	-173.97627	-257.15247	1074.2329	-225.53818	-238.45499	1014.5086	-155.4453	-235.11719	883.95728	-130.44627	-257.24179	865.28998	-185.57805	-259.15268	799.40991	-118.50864	148.59488	901.63068	-80.891205	-144.91212	906.69446	-78.502563	71.326981	947.42053	-290.18457	-66.585007	938.26013	-291.08148
2629	26.28	87.182373	1605.3993	-98.877342	-66.945763	1603.015	-100.88446	89.503021	1582.7382	-230.13223	-73.852814	1583.6223	-215.24442	3.6780796	1415.5913	-266.57181	6.2827878	1218.6393	-304.14511	15.609659	1359.1619	-107.89094	15.976619	1214.964	-54.645966	-85.102394	1301.4528	-308.87399	180.71202	1390.1969	-203.47084	245.1908	1282.757	-202.03682	265.52991	1077.9521	-254.31267	247.16333	959.35944	-165.72729	251.02449	889.9425	-143.05783	277.95233	866.65759	-199.35889	267.87155	802.72748	-125.20973	-176.49968	1390.113	-172.82813	-231.79533	1154.0093	-173.68617	-257.24689	1074.129	-225.185	-238.29462	1014.4367	-155.02277	-234.76976	883.94812	-129.97527	-257.24619	865.05377	-184.91972	-258.94019	799.43811	-117.99939	148.60843	901.55695	-80.990181	-144.88818	906.61243	-78.332115	71.065674	947.38489	-290.18365	-66.77195	938.23999	-290.89291
2630	26.29	87.36042	1605.4603	-99.250854	-66.814941	1603.1648	-101.16309	89.478325	1582.5068	-230.46738	-73.849823	1583.5947	-215.4644	3.5597508	1415.5449	-266.58197	6.1155839	1218.6033	-304.08151	15.630968	1359.1453	-107.85386	15.992694	1214.918	-54.645721	-85.318489	1301.399	-308.75253	180.62582	1390.2512	-203.57002	245.10318	1282.8262	-202.19554	265.48663	1077.9396	-254.23247	246.85045	959.54211	-165.55162	250.60153	890.03992	-142.7016	277.60489	866.73248	-198.96677	267.47696	802.89557	-124.74186	-176.58337	1390.0706	-172.58961	-231.88982	1153.9292	-173.42343	-257.34647	1074.0276	-224.80058	-238.68077	1014.5236	-154.3887	-234.56348	883.88257	-129.653	-257.04315	864.95691	-184.37578	-258.81885	799.4964	-117.50504	148.62253	901.47986	-81.088806	-144.94247	906.55817	-78.09333	70.873245	947.39606	-290.17307	-67.055962	938.2254	-290.69604
2631	26.3	87.467461	1605.478	-99.585251	-66.666725	1603.3882	-101.37956	89.472878	1582.2811	-230.7513	-74.198883	1583.4828	-215.56648	3.3837926	1415.4513	-266.52441	5.9553623	1218.6138	-304.13358	15.600286	1359.12	-107.7934	16.03722	1214.9025	-54.617348	-85.539047	1301.3503	-308.58652	180.4959	1390.3016	-203.67023	245.02026	1282.9242	-202.42235	265.81122	1077.9861	-254.05956	246.39725	959.64478	-165.40623	250.18471	890.12506	-142.43854	277.2804	866.79272	-198.5762	267.19601	803.07904	-124.33672	-176.6693	1389.9664	-172.34274	-231.97571	1153.8448	-173.18791	-257.50018	1073.9388	-224.4501	-238.63275	1014.4638	-154.06227	-234.31511	883.83783	-129.17651	-256.92813	864.8772	-183.88419	-258.6506	799.52545	-116.90347	148.67041	901.42413	-81.160515	-144.94162	906.49731	-77.899872	70.664162	947.35339	-290.11148	-67.25544	938.2124	-290.55829
2632	26.31	87.671799	1605.5254	-99.966774	-66.516083	1603.5533	-101.59462	89.420998	1582.0476	-231.093	-74.204597	1583.4606	-215.69179	3.2289073	1415.3879	-266.56961	5.7867064	1218.5818	-304.06726	15.579576	1359.078	-107.79864	16.080124	1214.8177	-54.60965	-85.758423	1301.3201	-308.51425	180.43858	1390.368	-203.74324	244.94162	1283.0215	-202.64261	265.40884	1077.9131	-254.03586	246.15962	959.79584	-165.23784	249.71101	890.23663	-142.18669	277.17679	866.9823	-198.38242	266.89737	803.25122	-123.99832	-176.711	1389.8824	-172.11411	-232.10004	1153.7488	-172.89136	-257.18161	1073.8087	-224.08737	-238.6566	1014.3405	-153.69241	-234.19217	883.82819	-128.69542	-256.88031	864.83429	-183.40956	-258.54065	799.57819	-116.3237	148.62695	901.37646	-81.186363	-144.97702	906.50739	-77.664406	70.474861	947.36768	-290.12076	-67.509377	938.15967	-290.39999
2633	26.32	87.811218	1605.5364	-100.34523	-66.372414	1603.7079	-101.74792	89.379227	1581.8433	-231.43365	-74.264427	1583.4266	-215.85173	3.0759993	1415.3087	-266.56396	5.6261287	1218.5571	-304.05423	15.528122	1359.0135	-107.7846	16.086327	1214.7681	-54.652378	-85.920845	1301.2545	-308.41504	180.29065	1390.4189	-203.8158	244.88383	1283.1261	-202.81978	265.41174	1077.89	-253.93304	245.83284	959.91736	-165.07254	249.2679	890.3053	-141.99849	276.63199	866.67365	-197.95467	266.64972	803.36603	-123.76558	-176.83142	1389.8055	-171.96419	-232.20207	1153.6716	-172.64262	-257.42572	1073.6566	-223.7845	-238.78871	1014.2635	-153.34775	-234.09451	883.78357	-128.28424	-256.90442	864.74377	-182.90404	-258.47049	799.56793	-115.83501	148.58624	901.38708	-81.204338	-145.0508	906.45557	-77.4561	70.251747	947.36127	-290.06241	-67.687256	938.18573	-290.24457
2634	26.33	87.971985	1605.5682	-100.72134	-66.208794	1603.8273	-101.83559	89.334801	1581.6484	-231.77289	-74.31813	1583.3882	-215.98048	2.9066839	1415.2455	-266.53723	5.4597483	1218.5769	-303.99759	15.460985	1358.986	-107.73197	16.070137	1214.7041	-54.653439	-86.097015	1301.2098	-308.32977	180.22318	1390.4608	-203.86185	244.80258	1283.1941	-202.92529	265.87009	1077.9399	-253.87183	245.55124	959.94702	-164.95712	248.80653	890.44849	-141.84602	276.38239	866.69659	-197.70549	266.22937	803.47058	-123.52875	-176.87944	1389.6826	-171.79207	-232.3665	1153.6425	-172.38364	-257.67517	1073.5294	-223.29352	-238.78482	1014.249	-153.00099	-234.01137	883.79095	-127.88199	-257.04858	864.66943	-182.39278	-258.43295	799.57739	-115.25679	148.61703	901.43878	-81.181671	-145.02684	906.43848	-77.260269	70.119926	947.32306	-289.99289	-67.873428	938.16907	-290.06775
2635	26.34	88.092537	1605.589	-101.07411	-66.051003	1603.925	-101.97999	89.236099	1581.4791	-232.09827	-74.400261	1583.3325	-216.07809	2.7950623	1415.1953	-266.49533	5.3548932	1218.5327	-303.99594	15.452653	1358.925	-107.73512	16.078228	1214.6379	-54.65625	-86.266548	1301.1355	-308.2251	180.13698	1390.506	-203.84612	244.71895	1283.2115	-202.96169	265.88983	1077.9148	-253.90184	245.28841	960.01019	-164.80981	248.26045	890.49878	-141.69528	276.12531	867.00702	-197.44957	265.82562	803.60693	-123.34851	-176.99034	1389.6027	-171.64079	-232.48198	1153.528	-172.08276	-257.97974	1073.4044	-222.91565	-239.0405	1014.179	-152.50714	-233.93645	883.69897	-127.37702	-257.2655	864.62054	-181.78819	-258.44373	799.58435	-114.71501	148.57317	901.46173	-81.104218	-145.08878	906.39984	-77.126228	69.956337	947.33557	-289.97815	-68.052895	938.17053	-289.90927
